{"title":"The Lone Ranger  (Western 2013)  Johnny Depp, Armie Hammer &amp;","uid":9408831,"size":705378121,"categoryP":"video","categoryS":"movies","magnet":"?xt=urn:btih:da2b862e14b3f6f57c6ecbe93d9682b1df8381d2&amp;dn=The+Lone+Ranger++%28Western+2013%29++Johnny+Depp%2C+Armie+Hammer+%26amp%3B&amp;tr=udp%3A%2F%2Ftracker.openbittorrent.com%3A80&amp;tr=udp%3A%2F%2Fopen.demonii.com%3A1337&amp;tr=udp%3A%2F%2Ftracker.coppersurfer.tk%3A6969&amp;tr=udp%3A%2F%2Fexodus.desync.com%3A6969","seeders":6,"leechers":0,"uploader":"BurtonW","files":1,"time":1388230705,"description":" &lt;a href=&quot;http://www.imdb.com/title/tt1210819/?ref_=fn_al_tt_1&quot; rel=&quot;nofollow&quot; target=&quot;_NEW&quot;&gt;http://www.imdb.com/title/tt1210819/?ref_=fn_al_tt_1&lt;/a&gt;\n\n\nA very good quality film.\n\n\nNo subtitles!\n\n\nStoryline:\n\nIn the 1930s, an elderly Tonto tells a young boy the tale of John Reid, the Lone Ranger. An idealistic lawyer, he rides with his brother and fellow Texas Rangers in pursuit of the notorious Butch Cavendish. Ambushed by the outlaw and left for dead, John Reid is rescued by the renegade Comanche, Tonto, at the insistence of a mysterious white horse and offers to help him to bring Cavendish to justice. Becoming a reluctant masked rider with a seemingly incomprehensible partner, Reid pursues the criminal against all obstacles. However, John and Tonto learn that Cavendish is only part of a far greater injustice and the pair must fight it in an adventure that would make them a legend.\n\n\nTechnical info:\n\n\nGeneral:\n\nComplete name:                  : The Lone Ranger  (Western 2013)  Johnny Depp, Armie Hammer &amp; William Fichtner.mp4\n\nFormat                         : MPEG-4\nFormat profile                 : Base Media / Version 2\nCodec ID                       : mp42\nFile size                      : 673 MiB\nDuration                       : 2h 29mn\nOverall bit rate mode          : Variable\nOverall bit rate               : 629 Kbps\nEncoded date                   : UTC 2013-11-27 06:09:34\nTagged date                    : UTC 2013-11-27 11:50:32\n\n\nVideo:\n\nID                             : 1\nFormat                         : AVC\nFormat/Info                    : Advanced Video Codec\nFormat profile                 : &lt;a class=&quot;__cf_email__&quot; href=&quot;/cdn-cgi/l/email-protection&quot; data-cfemail=&quot;206d41494e606c140e10&quot;&gt;[email&amp;#160;protected]&lt;/a&gt;&lt;script cf-hash='f9e31' type=&quot;text/javascript&quot;&gt;\n/* &lt;![CDATA[ */!function(){try{var t=&quot;currentScript&quot;in document?document.currentScript:function(){for(var t=document.getElementsByTagName(&quot;script&quot;),e=t.length;e--;)if(t[e].getAttribute(&quot;cf-hash&quot;))return t[e]}();if(t&amp;&amp;t.previousSibling){var e,r,n,i,c=t.previousSibling,a=c.getAttribute(&quot;data-cfemail&quot;);if(a){for(e=&quot;&quot;,r=parseInt(a.substr(0,2),16),n=2;a.length-n;n+=2)i=parseInt(a.substr(n,2),16)^r,e+=String.fromCharCode(i);e=document.createTextNode(e),c.parentNode.replaceChild(e,c)}}}catch(u){}}();/* ]]&gt; */&lt;/script&gt;\nFormat settings, CABAC         : Yes\nFormat settings, ReFrames      : 16 frames\nCodec ID                       : avc1\nCodec ID/Info                  : Advanced Video Coding\nDuration                       : 2h 29mn\nBit rate mode                  : Variable\nBit rate                       : 464 Kbps\nWidth                          : 736 pixels\nHeight                         : 304 pixels\nDisplay aspect ratio           : 2.40:1\nFrame rate mode                : Variable\nFrame rate                     : 23.976 fps\nMinimum frame rate             : 7.992 fps\nMaximum frame rate             : 23.981 fps\nColor space                    : YUV\nChroma subsampling             : 4:2:0\nBit depth                      : 8 bits\nScan type                      : Progressive\nBits/(Pixel*Frame)             : 0.086\nStream size                    : 496 MiB (74%)\nWriting library                : x264 core 130 r2273 b3065e6\nEncoding settings              : Deleted\nEncoded date                   : UTC 2013-11-27 06:09:34\nTagged date                    : UTC 2013-11-27 11:50:32\nColor primaries                : BT.709\nTransfer characteristics       : BT.709\nMatrix coefficients            : BT.709\n\nAudio:\n\nID                             : 2\nFormat                         : AAC\nFormat/Info                    : Advanced Audio Codec\nFormat profile                 : LC\nCodec ID                       : 40\nDuration                       : 2h 29mn\nBit rate mode                  : Variable\nBit rate                       : 160 Kbps\nMaximum bit rate               : 240 Kbps\nChannel(s)                     : 2 channels\nChannel positions              : Front: L R\nSampling rate                  : 48.0 KHz\nCompression mode               : Lossy\nDelay relative to video        : 167ms\nStream size                    : 171 MiB (25%)\nLanguage                       : English\nEncoded date                   : UTC 2013-11-27 06:09:34\nTagged date                    : UTC 2013-11-27 11:50:31\n\n","torrent":{"xt":"urn:btih:da2b862e14b3f6f57c6ecbe93d9682b1df8381d2","amp;dn":"The+Lone+Ranger++%28Western+2013%29++Johnny+Depp%2C+Armie+Hammer+%26amp%3B","amp;tr":["udp%3A%2F%2Ftracker.openbittorrent.com%3A80","udp%3A%2F%2Fopen.demonii.com%3A1337","udp%3A%2F%2Ftracker.coppersurfer.tk%3A6969","udp%3A%2F%2Fexodus.desync.com%3A6969"],"infoHash":"da2b862e14b3f6f57c6ecbe93d9682b1df8381d2","infoHashBuffer":{"type":"Buffer","data":[218,43,134,46,20,179,246,245,124,110,203,233,61,150,130,177,223,131,129,210]},"announce":[],"urlList":[]}}